<svg xmlns="http://www.w3.org/2000/svg" width="39.639" height="39.626" viewBox="0 0 39.639 39.626">
  <g id="https:_www.flaticon.com_free-icon_analysis_809497" data-name="https://www.flaticon.com/free-icon/analysis_809497" transform="translate(0)">
    <g id="Group_8" data-name="Group 8" transform="translate(2.657 2.644)">
      <g id="Group_7" data-name="Group 7">
        <path id="Path_47" data-name="Path 47" d="M46.051,32.106A13.869,13.869,0,1,0,59.919,45.975,13.869,13.869,0,0,0,46.051,32.106Zm0,1.321A12.534,12.534,0,0,1,56.3,38.756l-1.651,1.651a2.606,2.606,0,0,0-1.331-.376,2.642,2.642,0,0,0-2.642,2.642,2.606,2.606,0,0,0,.374,1.333L46.724,48.33a2.561,2.561,0,0,0-2.667,0l-3-3a2.606,2.606,0,0,0,.374-1.333,2.636,2.636,0,0,0-5.189-.66h-2.45A12.566,12.566,0,0,1,46.051,33.427Zm8.585,9.246a1.321,1.321,0,1,1-1.321-1.321A1.321,1.321,0,0,1,54.636,42.673ZM46.711,50.6a1.321,1.321,0,1,1-1.321-1.321A1.321,1.321,0,0,1,46.711,50.6Zm-6.6-6.6a1.321,1.321,0,1,1-1.321-1.321A1.321,1.321,0,0,1,40.107,43.993Zm12.04,12.953A12.545,12.545,0,0,1,33.573,44.654h2.665a2.642,2.642,0,0,0,2.548,1.981,2.606,2.606,0,0,0,1.333-.374l3,3a2.606,2.606,0,0,0-.374,1.333,2.642,2.642,0,1,0,5.283,0,2.606,2.606,0,0,0-.374-1.333l4.324-4.324a2.606,2.606,0,0,0,1.333.374,2.642,2.642,0,0,0,2.642-2.642,2.606,2.606,0,0,0-.374-1.333l1.44-1.439A12.536,12.536,0,0,1,52.147,56.946Z" transform="translate(-32.182 -32.106)" fill="#fff"/>
      </g>
    </g>
    <g id="Group_10" data-name="Group 10" transform="translate(0 0)">
      <g id="Group_9" data-name="Group 9">
        <path id="Path_48" data-name="Path 48" d="M33.036,6.687a2.642,2.642,0,0,0,2.548-1.981H39.64V3.384H35.584a2.636,2.636,0,0,0-5.189.66,2.606,2.606,0,0,0,.374,1.333l-1.16,1.16a16.51,16.51,0,1,0-4.122,23.911l1.993,1.993.934.934,5.316,5.316a3.462,3.462,0,0,0,4.9-4.9L33.309,28.48l-.934-.934-1.993-1.993a16.455,16.455,0,0,0,0-17.921L31.7,6.311A2.607,2.607,0,0,0,33.036,6.687Zm0-3.962a1.321,1.321,0,1,1-1.321,1.321A1.321,1.321,0,0,1,33.036,2.724ZM37.692,34.73A2.142,2.142,0,0,1,34.7,37.793l-.034-.034-5.316-5.316,3.029-3.029Zm-6.25-6.25-3.029,3.029-1.828-1.828c.093-.071.18-.15.272-.223s.2-.161.3-.244c.145-.122.287-.244.427-.37.072-.066.141-.132.211-.2q.406-.38.787-.787c.066-.071.132-.139.2-.211.126-.14.249-.283.37-.427q.124-.147.244-.3c.073-.091.151-.178.223-.271ZM28.88,25.412c-.208.291-.423.575-.649.849-.066.08-.137.157-.2.236q-.3.353-.626.684-.141.145-.286.286-.33.323-.684.626c-.079.066-.156.138-.236.2-.274.227-.559.441-.849.649a15.213,15.213,0,1,1,3.535-3.535Z" transform="translate(0 -0.08)" fill="#fff"/>
      </g>
    </g>
  </g>
</svg>
