<svg xmlns="http://www.w3.org/2000/svg" width="26.942" height="39.625" viewBox="0 0 26.942 39.625">
  <path id="https:_www.flaticon.com_free-icon_lightbulb_1527680" data-name="https://www.flaticon.com/free-icon/lightbulb_1527680" d="M25.469,7.338a.59.59,0,1,0-1.051.538,12.3,12.3,0,0,1-1.13,12.99,5.255,5.255,0,0,0-1.041,3.15v.075a2.919,2.919,0,0,1-2.916,2.916H14.062V19.532A4.375,4.375,0,0,0,17.84,15.2a.59.59,0,1,0-1.181,0,3.188,3.188,0,0,1-6.376,0,.59.59,0,1,0-1.181,0,4.375,4.375,0,0,0,3.778,4.328v7.476H7.611A2.919,2.919,0,0,1,4.7,24.092v-.076a5.312,5.312,0,0,0-1.078-3.2A12.3,12.3,0,0,1,13.448,1.18h.023A12.205,12.205,0,0,1,23.25,6.025a.59.59,0,0,0,.939-.716,13.592,13.592,0,0,0-4.653-3.87A13.45,13.45,0,0,0,3.9,4.008,13.445,13.445,0,0,0,2.672,21.524a4.142,4.142,0,0,1,.843,2.492v.076a4.09,4.09,0,0,0,1.468,3.139,2.5,2.5,0,0,0,.369,4.68,2.495,2.495,0,0,0,2.062,3.9H9.089a4.4,4.4,0,0,0,8.723,0h1.676a2.5,2.5,0,0,0,2.062-3.9,2.5,2.5,0,0,0,.4-4.668,4.09,4.09,0,0,0,1.482-3.151v-.075a4.069,4.069,0,0,1,.8-2.439,13.482,13.482,0,0,0,1.239-14.24ZM13.45,38.443a3.226,3.226,0,0,1-3.166-2.631h6.332A3.226,3.226,0,0,1,13.45,38.443Zm7.439-10.254a1.316,1.316,0,1,1,0,2.631H10.612a.59.59,0,1,0,0,1.181h8.875a1.316,1.316,0,1,1,0,2.631H7.413a1.316,1.316,0,0,1,0-2.631h.838a.59.59,0,0,0,0-1.181H6.011a1.316,1.316,0,0,1,0-2.631Zm0,0" transform="translate(0 0.001)" fill="#fff"/>
</svg>
