<svg id="https:_www.flaticon.com_free-icon_handshake_784719" data-name="https://www.flaticon.com/free-icon/handshake_784719" xmlns="http://www.w3.org/2000/svg" width="39.554" height="39.626" viewBox="0 0 39.554 39.626">
  <g id="Group_31" data-name="Group 31" transform="translate(19.176 18.651)">
    <g id="Group_30" data-name="Group 30">
      <path id="Path_59" data-name="Path 59" d="M256.2,244.677l-5.38-3.306a.593.593,0,0,0-.217-.08l-1.684-.3a.581.581,0,0,0-.2,1.143l1.589.28,5.286,3.248a.581.581,0,0,0,.608-.989Z" transform="translate(-248.236 -240.986)" fill="#fff"/>
    </g>
  </g>
  <g id="Group_33" data-name="Group 33" transform="translate(0 0)">
    <g id="Group_32" data-name="Group 32">
      <path id="Path_60" data-name="Path 60" d="M39.864,22.529a.581.581,0,0,0-.821-.028L36.69,24.7,25.906,14.06,39.837,1a.581.581,0,0,0-.794-.847L24.672,13.626a.586.586,0,0,0-.011.837l.954.941-.3.269-6.376-.549a.582.582,0,0,0-.29.05l-5.052,2.3-.045-.01-2.906-.513.235-.6a.58.58,0,0,0-.325-.75L1.263,11.885a.581.581,0,0,0-.431,1.078l8.754,3.5L4.427,29.647,1.241,28.519a.581.581,0,0,0-.388,1.095l3.715,1.316a.586.586,0,0,0,.734-.336l.862-2.2,2.259,1.266-.249.4A2.437,2.437,0,0,0,11,33.659a2.436,2.436,0,0,0,3.162,1.951,2.437,2.437,0,0,0,3.162,1.952,2.437,2.437,0,0,0,4.485.913l.4-.642.326.2a2.434,2.434,0,0,0,3.354-.8,2.424,2.424,0,0,0,.355-1.423,2.408,2.408,0,0,0,.563.068,2.458,2.458,0,0,0,2.082-1.163,2.421,2.421,0,0,0,.356-1.422,2.408,2.408,0,0,0,.562.068A2.458,2.458,0,0,0,31.888,32.2a2.42,2.42,0,0,0,.356-1.423,2.437,2.437,0,0,0,1.843-4.448l-.4-.244,1.334-1.394,1.248,1.231a.586.586,0,0,0,.8.011l2.761-2.58A.581.581,0,0,0,39.864,22.529ZM11.337,32.011A1.277,1.277,0,0,1,9.163,30.67l3.252-5.27a1.283,1.283,0,0,1,1.736-.429,1.321,1.321,0,0,1,.416,1.806ZM14.5,33.962a1.277,1.277,0,1,1-2.174-1.341l2.6-4.216a1.283,1.283,0,0,1,1.736-.429,1.321,1.321,0,0,1,.416,1.806Zm3.162,1.951a1.277,1.277,0,0,1-1.758.416,1.289,1.289,0,0,1-.416-1.758l1.951-3.162a1.283,1.283,0,0,1,1.736-.429,1.321,1.321,0,0,1,.416,1.806Zm4.441-.121-1.279,2.072a1.277,1.277,0,0,1-2.174-1.341l1.3-2.108a1.283,1.283,0,0,1,1.736-.429A1.321,1.321,0,0,1,22.1,35.792ZM32.678,25.46,29.8,23.691a.58.58,0,1,0-.608.989l4.287,2.634a1.277,1.277,0,1,1-1.337,2.176l-4.6-2.826a.58.58,0,1,0-.608.989l3.543,2.177a1.277,1.277,0,1,1-1.337,2.176l-3.211-1.973a.58.58,0,0,0-.608.989l2.156,1.325a1.277,1.277,0,0,1-1.337,2.176s-1.9-1.164-1.914-1.172a.58.58,0,0,0-.556,1.018l.806.5a1.277,1.277,0,0,1-1.337,2.176l-.324-.2.273-.442a2.513,2.513,0,0,0,.3-1.911,2.4,2.4,0,0,0-2.506-1.833,2.517,2.517,0,0,0-.006-1.172,2.4,2.4,0,0,0-2.506-1.834,2.471,2.471,0,0,0-1.116-2.676,2.417,2.417,0,0,0-1.4-.329,2.43,2.43,0,0,0-4.431-1.857L9.035,28.667,6.593,27.3l3.617-9.244,1.97.348a2.438,2.438,0,0,0,2.907,3.751l3.4-1.549A.581.581,0,0,0,18,19.548L14.6,21.1a1.277,1.277,0,0,1-1.059-2.325l5.44-2.478,6.472.557.05,0a.581.581,0,0,0,.384-.145l.551-.486,7.754,7.65Z" transform="translate(-0.467 -0.001)" fill="#fff"/>
    </g>
  </g>
</svg>
