<svg xmlns="http://www.w3.org/2000/svg" width="34.912" height="39.626" viewBox="0 0 34.912 39.626">
  <g id="https:_www.flaticon.com_free-icon_save-money_1611179" data-name="https://www.flaticon.com/free-icon/save-money_1611179" transform="translate(0)">
    <path id="Path_84" data-name="Path 84" d="M188.868,156.683a.619.619,0,0,0-.223-.008,1.478,1.478,0,0,1-1.307-1.465.65.65,0,1,0-1.3,0,2.781,2.781,0,0,0,2.045,2.677v.65a.65.65,0,1,0,1.3,0v-.611a2.776,2.776,0,0,0-.569-5.492,1.476,1.476,0,1,1,1.476-1.476.65.65,0,1,0,1.3,0,2.781,2.781,0,0,0-2.207-2.717v-.592a.65.65,0,1,0-1.3,0v.631a2.775,2.775,0,0,0,.731,5.453,1.475,1.475,0,0,1,.054,2.949Zm0,0" transform="translate(-170.952 -135.057)" fill="#fff"/>
    <path id="Path_85" data-name="Path 85" d="M104.2,115.918a9.425,9.425,0,1,0,9.425-9.425A9.425,9.425,0,0,0,104.2,115.918Zm9.425-8.125a8.125,8.125,0,1,1-8.125,8.125A8.125,8.125,0,0,1,113.621,107.792Zm0,0" transform="translate(-95.759 -97.84)" fill="#fff"/>
    <path id="Path_86" data-name="Path 86" d="M30.852,328.946l-5.092,2.406a4.147,4.147,0,0,0-3.536-2.182l-4.7-.129a4.965,4.965,0,0,1-2.136-.552l-.478-.248a8.436,8.436,0,0,0-7.814.008l.03-1.083a.65.65,0,0,0-.632-.668l-5.154-.142a.65.65,0,0,0-.667.632L.36,338.3a.65.65,0,0,0,.632.668l5.154.142h.018a.65.65,0,0,0,.65-.632l.015-.541,1.339-.717a2.3,2.3,0,0,1,1.714-.188l8,2.244.042.01a8.557,8.557,0,0,0,1.757.181,8.672,8.672,0,0,0,3.623-.791.6.6,0,0,0,.081-.044l11.593-7.5a.65.65,0,0,0,.213-.866A3.283,3.283,0,0,0,30.852,328.946ZM1.678,337.685l.275-10.011,3.855.106-.275,10.012Zm21.037-.17a7.369,7.369,0,0,1-4.507.5l-7.974-2.238a3.594,3.594,0,0,0-2.679.293l-.684.367.183-6.656a7.145,7.145,0,0,1,7.258-.387l.478.248a6.277,6.277,0,0,0,2.7.7l4.7.129a2.851,2.851,0,0,1,2.709,2.272l-7-.193a.65.65,0,0,0-.036,1.3l7.727.213h.018a.65.65,0,0,0,.649-.632,4.126,4.126,0,0,0-.063-.843l5.222-2.468.015-.007a1.986,1.986,0,0,1,2.246.315Zm0,0" transform="translate(-0.36 -299.84)" fill="#fff"/>
    <path id="Path_87" data-name="Path 87" d="M213.5,6.825V.65a.65.65,0,0,0-1.3,0V6.825a.65.65,0,0,0,1.3,0Zm0,0" transform="translate(-194.991)" fill="#fff"/>
    <path id="Path_88" data-name="Path 88" d="M273.5,43.575V40.65a.65.65,0,1,0-1.3,0v2.925a.65.65,0,1,0,1.3,0Zm0,0" transform="translate(-250.116 -36.75)" fill="#fff"/>
    <path id="Path_89" data-name="Path 89" d="M153.5,43.575V40.65a.65.65,0,1,0-1.3,0v2.925a.65.65,0,1,0,1.3,0Zm0,0" transform="translate(-139.866 -36.75)" fill="#fff"/>
  </g>
</svg>
