<svg xmlns="http://www.w3.org/2000/svg" width="40.011" height="39.787" viewBox="0 0 40.011 39.787">
  <g id="https:_www.flaticon.com_free-icon_fork_1046857" data-name="https://www.flaticon.com/free-icon/fork_1046857" transform="translate(0)">
    <path id="Path_90" data-name="Path 90" d="M81.522,21.958l2.351-.149h.013A5.535,5.535,0,0,0,88.011,19.4l1.858-2.727A11,11,0,0,0,91.634,8.6,2.483,2.483,0,0,0,89.3,6.536a11,11,0,0,0-7.8,2.719l-2.484,2.172a5.536,5.536,0,0,0-1.9,4.385s0,.008,0,.013l.134,2.351a3.31,3.31,0,0,1-.92,2.48L56.927,40.594a2.82,2.82,0,0,0-.755,2.093,3.242,3.242,0,0,0,3.286,3.152q.129,0,.258-.01a2.821,2.821,0,0,0,1.99-1L79.169,23.171A3.311,3.311,0,0,1,81.522,21.958Zm-3.285.458L60.775,44.068a1.632,1.632,0,0,1-1.155.565,2.048,2.048,0,0,1-2.249-1.994,1.63,1.63,0,0,1,.419-1.211L77.2,21.491a4.514,4.514,0,0,0,1.257-3.383l-.134-2.345a4.342,4.342,0,0,1,1.488-3.433l2.484-2.172a9.813,9.813,0,0,1,6.956-2.424,1.284,1.284,0,0,1,1.2,1.067A9.808,9.808,0,0,1,88.878,16L87.02,18.724a4.342,4.342,0,0,1-3.23,1.888l-2.344.148A4.516,4.516,0,0,0,78.237,22.416Zm0,0" transform="translate(-51.78 -6.052)" fill="#fff"/>
    <path id="Path_91" data-name="Path 91" d="M305.954,298.909l-13.013-11.853a.6.6,0,1,0-.808.887l13.01,11.85a1.632,1.632,0,0,1,.495,1.187,2.049,2.049,0,0,1-2.126,2.126,1.631,1.631,0,0,1-1.184-.491l-11.6-12.731a.6.6,0,1,0-.887.808l11.6,12.734a2.82,2.82,0,0,0,2.044.88h.063a3.247,3.247,0,0,0,3.285-3.349A2.823,2.823,0,0,0,305.954,298.909Zm0,0" transform="translate(-267.051 -264.519)" fill="#fff"/>
    <path id="Path_92" data-name="Path 92" d="M7.238,16.292A5.554,5.554,0,0,0,10.87,17.76h.013l2.355.007a3.308,3.308,0,0,1,2.42,1.068L16.7,19.974a.6.6,0,1,0,.887-.808l-1.039-1.14a4.513,4.513,0,0,0-3.3-1.458l-2.349-.007a4.358,4.358,0,0,1-2.815-1.126L1.252,7.32a.207.207,0,0,1,.3-.28L7.77,13.254a1.577,1.577,0,0,0,2.228,0l.73-.73h0l1.3-1.3h0l.73-.73a1.577,1.577,0,0,0,0-2.228L6.541,2.055a.207.207,0,0,1,.28-.3l8.115,6.826a4.356,4.356,0,0,1,1.126,2.815l.007,2.349a4.517,4.517,0,0,0,1.459,3.3l1.112,1.013a.6.6,0,1,0,.808-.887l-1.11-1.011a3.311,3.311,0,0,1-1.069-2.422l-.007-2.355s0-.009,0-.013a5.554,5.554,0,0,0-1.468-3.632.6.6,0,0,0-.055-.053L7.593.832A1.407,1.407,0,0,0,5.693,2.9l6.213,6.214a.376.376,0,0,1,0,.531l-.306.306L4.676,3.029a.6.6,0,0,0-.848.848L10.753,10.8l-.449.448L3.379,4.326a.6.6,0,0,0-.848.848L9.456,12.1l-.306.306a.376.376,0,0,1-.531,0L2.4,6.192a1.407,1.407,0,0,0-2.071,1.9l6.852,8.144A.558.558,0,0,0,7.238,16.292Zm0,0" transform="translate(-0.001 -0.499)" fill="#fff"/>
  </g>
</svg>
