<svg xmlns="http://www.w3.org/2000/svg" width="41.081" height="39.626" viewBox="0 0 41.081 39.626">
  <g id="https:_www.flaticon.com_free-icon_world_761488" data-name="https://www.flaticon.com/free-icon/world_761488" transform="translate(0)">
    <g id="Group_35" data-name="Group 35" transform="translate(5.504 32.966)">
      <g id="Group_34" data-name="Group 34">
        <path id="Path_61" data-name="Path 61" d="M54.9,323.122l-.041-.034c-.419-.348-.838-.72-1.223-1.106a.626.626,0,0,0-.884.888,16.019,16.019,0,0,0,1.307,1.185.628.628,0,0,0,.841-.934Z" transform="translate(-52.569 -321.801)" fill="#fff"/>
      </g>
    </g>
    <g id="Group_37" data-name="Group 37" transform="translate(0.129 15.627)">
      <g id="Group_36" data-name="Group 36">
        <path id="Path_62" data-name="Path 62" d="M2.363,156.232a.628.628,0,0,0-.833.536c-.126.574-.222,1.156-.293,1.738a.628.628,0,0,0,.532.7h.08a.628.628,0,0,0,.624-.553c.067-.544.159-1.093.276-1.625A.628.628,0,0,0,2.363,156.232Z" transform="translate(-1.232 -156.197)" fill="#fff"/>
      </g>
    </g>
    <g id="Group_39" data-name="Group 39" transform="translate(2.633 29.276)">
      <g id="Group_38" data-name="Group 38">
        <path id="Path_63" data-name="Path 63" d="M27.229,288.243c-.322-.444-.628-.9-.909-1.374a.628.628,0,0,0-.861-.219h0a.628.628,0,0,0-.219.861v0c.3.5.628,1,.976,1.47a.628.628,0,0,0,1.014-.741Z" transform="translate(-25.15 -286.562)" fill="#fff"/>
      </g>
    </g>
    <g id="Group_41" data-name="Group 41" transform="translate(0.741 24.984)">
      <g id="Group_40" data-name="Group 40">
        <path id="Path_64" data-name="Path 64" d="M8.857,247.577c-.2-.507-.385-1.03-.54-1.558a.628.628,0,0,0-.778-.428l-.017.005a.628.628,0,0,0-.419.779c.168.561.36,1.122.578,1.675a.634.634,0,1,0,1.177-.473Z" transform="translate(-7.076 -245.566)" fill="#fff"/>
      </g>
    </g>
    <g id="Group_43" data-name="Group 43" transform="translate(1.289 11.287)">
      <g id="Group_42" data-name="Group 42">
        <path id="Path_65" data-name="Path 65" d="M13.917,114.82a.628.628,0,0,0-.844.279c-.264.524-.507,1.064-.72,1.612a.627.627,0,0,0,1.167.46v0a15.105,15.105,0,0,1,.674-1.5A.628.628,0,0,0,13.917,114.82Z" transform="translate(-12.309 -114.753)" fill="#fff"/>
      </g>
    </g>
    <g id="Group_45" data-name="Group 45" transform="translate(0 20.376)">
      <g id="Group_44" data-name="Group 44">
        <path id="Path_66" data-name="Path 66" d="M1.391,203.8v0c-.067-.544-.113-1.1-.134-1.642A.629.629,0,0,0,0,202.2a13.767,13.767,0,0,0,.142,1.759.628.628,0,0,0,.607.54h.1A.628.628,0,0,0,1.391,203.8Z" transform="translate(0 -201.553)" fill="#fff"/>
      </g>
    </g>
    <g id="Group_47" data-name="Group 47" transform="translate(15.05 1.097)">
      <g id="Group_46" data-name="Group 46">
        <path id="Path_67" data-name="Path 67" d="M146.745,18a.631.631,0,0,0-.689-.567c-.582.059-1.168.142-1.746.255a.631.631,0,0,0,.117,1.256l0-.017h.121c.54-.1,1.089-.184,1.633-.239A.631.631,0,0,0,146.745,18Z" transform="translate(-143.738 -17.428)" fill="#fff"/>
      </g>
    </g>
    <g id="Group_49" data-name="Group 49" transform="translate(3.516 7.395)">
      <g id="Group_48" data-name="Group 48">
        <path id="Path_68" data-name="Path 68" d="M35.691,77.739a.632.632,0,0,0-.892.054c-.385.44-.754.9-1.1,1.382a.628.628,0,0,0,.507,1v.008a.628.628,0,0,0,.511-.26c.322-.444.666-.879,1.026-1.29A.632.632,0,0,0,35.691,77.739Z" transform="translate(-33.582 -77.58)" fill="#fff"/>
      </g>
    </g>
    <g id="Group_51" data-name="Group 51" transform="translate(19.775 1.02)">
      <g id="Group_50" data-name="Group 50">
        <path id="Path_69" data-name="Path 69" d="M191.295,16.87c-.578-.088-1.168-.151-1.755-.184a.629.629,0,0,0-.075,1.256c.553.042,1.1.1,1.642.184h.1a.63.63,0,1,0,.092-1.256Z" transform="translate(-188.873 -16.685)" fill="#fff"/>
      </g>
    </g>
    <g id="Group_53" data-name="Group 53" transform="translate(6.713 4.305)">
      <g id="Group_52" data-name="Group 52">
        <path id="Path_70" data-name="Path 70" d="M66.6,48.32a.628.628,0,0,0-.845-.156c-.482.331-.955.691-1.407,1.064a.629.629,0,0,0,.8.967c.419-.352.863-.687,1.315-1A.628.628,0,0,0,66.6,48.32Z" transform="translate(-64.116 -48.064)" fill="#fff"/>
      </g>
    </g>
    <g id="Group_56" data-name="Group 56" transform="translate(10.668 2.119)">
      <g id="Group_55" data-name="Group 55">
        <g id="Group_54" data-name="Group 54">
          <path id="Path_71" data-name="Path 71" d="M107.817,45.652h0Z" transform="translate(-107.185 -43.719)" fill="#fff"/>
          <path id="Path_72" data-name="Path 72" d="M104.739,27.651a.628.628,0,0,0-.858-.409,15.7,15.7,0,0,0-1.625.683.625.625,0,1,0,.524,1.135c.494-.235,1.005-.448,1.52-.637A.628.628,0,0,0,104.739,27.651Z" transform="translate(-101.892 -27.189)" fill="#fff"/>
        </g>
      </g>
    </g>
    <g id="Group_58" data-name="Group 58" transform="translate(18.147 38.331)">
      <g id="Group_57" data-name="Group 57">
        <path id="Path_73" data-name="Path 73" d="M176.285,373.633a.629.629,0,0,0-.668-.588,15.489,15.489,0,0,1-1.65.038.628.628,0,0,0-.034,1.256h.532c.419,0,.838,0,1.231-.038A.629.629,0,0,0,176.285,373.633Z" transform="translate(-173.322 -373.044)" fill="#fff"/>
      </g>
    </g>
    <g id="Group_60" data-name="Group 60" transform="translate(36.274 24.348)">
      <g id="Group_59" data-name="Group 59">
        <path id="Path_74" data-name="Path 74" d="M347.726,239.509a.629.629,0,0,0-.764.454c-.134.532-.3,1.06-.482,1.575a.627.627,0,0,0,1.185.412v0c.2-.553.369-1.118.515-1.675A.629.629,0,0,0,347.726,239.509Z" transform="translate(-346.447 -239.489)" fill="#fff"/>
      </g>
    </g>
    <g id="Group_62" data-name="Group 62" transform="translate(36.761 15.002)">
      <g id="Group_61" data-name="Group 61">
        <path id="Path_75" data-name="Path 75" d="M352.693,152.4c-.1-.578-.218-1.16-.364-1.725a.628.628,0,0,0-1.214.318c.138.528.251,1.072.343,1.612a.628.628,0,0,0,.611.515h.1A.628.628,0,0,0,352.693,152.4Z" transform="translate(-351.099 -150.23)" fill="#fff"/>
      </g>
    </g>
    <g id="Group_64" data-name="Group 64" transform="translate(4.479 0)">
      <g id="Group_63" data-name="Group 63">
        <path id="Path_76" data-name="Path 76" d="M79.321,16.911a.609.609,0,0,0-.119-.173l-1.11-1.156a.607.607,0,0,0-.607-.151l-2,.607-2.345-2.488L78.4,10.619a.611.611,0,0,0,.18-.984L77.1,8.157a.612.612,0,0,0-.607-.142l-6.672,2.019L67.58,7.65A2.031,2.031,0,0,0,65.268,7.1H65.23a2.471,2.471,0,0,0-1.344,1.344,2.263,2.263,0,0,0-.134.494L63.5,8.852a.629.629,0,1,0-.385,1.2c.322.1.645.222.967.343a2.412,2.412,0,0,0,.339.419l2.366,2.245L66.106,15.3a14.758,14.758,0,1,0,3.12,3.007L70.3,16.37l2.488,2.345-.6,1.981a.607.607,0,0,0,.147.62s1.227,1.215,1.256,1.256a.607.607,0,0,0,.83-.221l.008-.014,1.638-3,2.957-1.612A.611.611,0,0,0,79.321,16.911Zm-31.27.828A13.448,13.448,0,0,1,57.57,13.8q.419,0,.838.025c2.375,2.19,1.675,4.188.084,5.989A29.4,29.4,0,0,1,55.476,22.6c-1.545,1.315-2.986,2.542-3.531,3.769-.645,1.457-.172,2.777,2.433,3.928a6.847,6.847,0,0,1,2.287,1.365.067.067,0,0,0,.012.011l-.029.01a5.2,5.2,0,0,1-1.977.339c-3.158.134-5.407-1.885-7.153-3.447-1.256-1.118-2.3-2.048-3.384-2.056A13.448,13.448,0,0,1,48.051,17.739Zm23.03,9.54h0a13.5,13.5,0,0,1-9.3,12.828,4.394,4.394,0,0,1,.515-2.852,10.383,10.383,0,0,1,2.513-2.764c3.866-3.225,4.083-5.026,4.251-6.412.1-.875.184-1.529,1.914-2.479A13.647,13.647,0,0,1,71.081,27.279ZM70.3,22.748a13.362,13.362,0,0,1,.461,1.612c-2.634,1.34-2.752,2.3-2.911,3.6-.142,1.173-.327,2.705-3.82,5.62a11.455,11.455,0,0,0-2.806,3.112,5.554,5.554,0,0,0-.628,3.74A13.494,13.494,0,0,1,44.106,27.753c.666,0,1.529.792,2.588,1.734,1.918,1.713,4.372,3.9,8.029,3.769a6.282,6.282,0,0,0,2.513-.477,1.256,1.256,0,0,0,.7-.787,1.2,1.2,0,0,0-.3-1.093,7.822,7.822,0,0,0-2.739-1.713c-1.772-.783-2.157-1.545-1.809-2.324.419-.98,1.767-2.094,3.2-3.35a30.485,30.485,0,0,0,3.145-2.932c1.751-1.994,2.651-4.167.871-6.546a13.4,13.4,0,0,1,5.444,2.475l-.963,3.179a.611.611,0,0,0,.147.62s1.562,1.55,1.612,1.579a.607.607,0,0,0,.83-.221l.008-.014,1.219-2.2A13.465,13.465,0,0,1,70.3,22.748Zm5.616-4.678-.54.268a.6.6,0,0,0-.276.281l-.268.544-1.043,1.885-.306-.335.607-2.006a.607.607,0,0,0-.2-.645l-3.3-3.112a.607.607,0,0,0-.859.008l-.017.017c-.042.046-3.015,5.4-3.015,5.4l-.649-.649,2.027-6.68a.607.607,0,0,0-.2-.649l-2.63-2.475a.871.871,0,0,1-.239-1.005,1.315,1.315,0,0,1,.683-.678h.021a.871.871,0,0,1,.98.251l2.513,2.655a.607.607,0,0,0,.62.168l6.7-2.023.649.649L71.86,12.864a.607.607,0,0,0-.242.824l.008.014c.025.046,3.229,3.455,3.229,3.455a.607.607,0,0,0,.62.163l2.014-.607.314.314Z" transform="translate(-42.775 -6.948)" fill="#fff"/>
      </g>
    </g>
    <g id="Group_66" data-name="Group 66" transform="translate(34.161 28.695)">
      <g id="Group_65" data-name="Group 65">
        <path id="Path_77" data-name="Path 77" d="M328.112,281.1l-.028-.015a.628.628,0,0,0-.838.247c-.264.482-.553.955-.863,1.407a.63.63,0,0,0,1.03.725c.327-.486.637-.993.921-1.5A.628.628,0,0,0,328.112,281.1Z" transform="translate(-326.269 -281.013)" fill="#fff"/>
      </g>
    </g>
    <g id="Group_68" data-name="Group 68" transform="translate(37.276 19.611)">
      <g id="Group_67" data-name="Group 67">
        <path id="Path_78" data-name="Path 78" d="M356.734,194.255a.628.628,0,0,0-.637.62c0,.008,0,.017,0,.025v.071c0,.549-.025,1.1-.075,1.65a.628.628,0,0,0,.569.683h.06a.628.628,0,0,0,.632-.582c.054-.582.08-1.173.08-1.759v-.084A.628.628,0,0,0,356.734,194.255Z" transform="translate(-356.019 -194.255)" fill="#fff"/>
      </g>
    </g>
    <g id="Group_70" data-name="Group 70" transform="translate(13.487 37.651)">
      <g id="Group_69" data-name="Group 69">
        <path id="Path_79" data-name="Path 79" d="M131.256,366.959a12.981,12.981,0,0,1-1.608-.369.628.628,0,1,0-.343,1.206c.561.159,1.139.3,1.717.419h.117a.631.631,0,0,0,.117-1.257Z" transform="translate(-128.811 -366.555)" fill="#fff"/>
      </g>
    </g>
    <g id="Group_72" data-name="Group 72" transform="translate(22.812 37.454)">
      <g id="Group_71" data-name="Group 71">
        <path id="Path_80" data-name="Path 80" d="M220.716,365.077a.628.628,0,0,0-.762-.387v.017a12.476,12.476,0,0,1-1.587.419.629.629,0,0,0,.276,1.227c.57-.13,1.143-.289,1.7-.469A.628.628,0,0,0,220.716,365.077Z" transform="translate(-217.876 -364.665)" fill="#fff"/>
      </g>
    </g>
    <g id="Group_74" data-name="Group 74" transform="translate(9.213 35.816)">
      <g id="Group_73" data-name="Group 73">
        <path id="Path_81" data-name="Path 81" d="M90.406,349.9c-.5-.247-.988-.515-1.462-.783a.629.629,0,0,0-.637,1.085c.507.3,1.03.574,1.562.838a.629.629,0,1,0,.536-1.139Z" transform="translate(-87.997 -349.029)" fill="#fff"/>
      </g>
    </g>
    <g id="Group_76" data-name="Group 76" transform="translate(31.071 32.481)">
      <g id="Group_75" data-name="Group 75">
        <path id="Path_82" data-name="Path 82" d="M299.022,317.335a.628.628,0,0,0-.877.029h0a15.262,15.262,0,0,1-1.181,1.152.629.629,0,1,0,.838.938c.419-.389.863-.8,1.256-1.231A.628.628,0,0,0,299.022,317.335Z" transform="translate(-296.758 -317.171)" fill="#fff"/>
      </g>
    </g>
    <g id="Group_78" data-name="Group 78" transform="translate(27.208 35.473)">
      <g id="Group_77" data-name="Group 77">
        <path id="Path_83" data-name="Path 83" d="M262.522,346.052a.628.628,0,0,0-.862-.217l-.03.019v-.017c-.461.293-.942.57-1.428.838a.628.628,0,0,0,.574,1.118c.519-.268,1.034-.565,1.529-.88A.628.628,0,0,0,262.522,346.052Z" transform="translate(-259.861 -345.746)" fill="#fff"/>
      </g>
    </g>
  </g>
</svg>
