<svg xmlns="http://www.w3.org/2000/svg" width="56.832" height="60.02" viewBox="0 0 56.832 60.02">
  <g id="https:_www.flaticon.com_free-icon_bar-chart_478544" data-name="https://www.flaticon.com/free-icon/bar-chart_478544" transform="translate(0)">
    <g id="Group_80" data-name="Group 80" transform="translate(0 17.192)">
      <g id="Group_79" data-name="Group 79">
        <path id="Path_93" data-name="Path 93" d="M69.26,187.138H66.689V149.805a3.155,3.155,0,0,0-3.151-3.151H57.791a3.155,3.155,0,0,0-3.151,3.151v37.333H48.111V166.72a3.155,3.155,0,0,0-3.151-3.151H39.213a3.155,3.155,0,0,0-3.151,3.151v20.418H29.533V176.564a3.155,3.155,0,0,0-3.151-3.151H20.634a3.155,3.155,0,0,0-3.151,3.151v10.574h-2.71a1.172,1.172,0,1,0,0,2.345H69.26a1.172,1.172,0,1,0,0-2.345Zm-42.072,0h-7.36V176.564a.808.808,0,0,1,.807-.807h5.747a.808.808,0,0,1,.807.807Zm18.578,0h-7.36V166.72a.808.808,0,0,1,.807-.807h5.747a.808.808,0,0,1,.807.807Zm18.578,0h-7.36V149.805a.808.808,0,0,1,.807-.807h5.747a.808.808,0,0,1,.807.807Z" transform="translate(-13.601 -146.654)" fill="#5db2ff"/>
      </g>
    </g>
    <g id="Group_82" data-name="Group 82" transform="translate(10.052)">
      <g id="Group_81" data-name="Group 81">
        <path id="Path_94" data-name="Path 94" d="M142.38,1.233A1.168,1.168,0,0,0,141.15,0l-.057,0H134a1.172,1.172,0,1,0,0,2.345h4.379L126.791,13.933l-4.37-4.37a1.172,1.172,0,0,0-1.658,0L99.69,30.637a1.172,1.172,0,0,0,1.658,1.658L121.592,12.05l4.37,4.37a1.172,1.172,0,0,0,1.658,0L140.038,4V7.966a1.172,1.172,0,1,0,2.345,0V1.289C142.383,1.27,142.381,1.252,142.38,1.233Z" transform="translate(-99.346)" fill="#5db2ff"/>
      </g>
    </g>
    <g id="Group_84" data-name="Group 84" transform="translate(6.1 34.384)">
      <g id="Group_83" data-name="Group 83">
        <ellipse id="Ellipse_2" data-name="Ellipse 2" cx="1.172" cy="1.172" rx="1.172" ry="1.172" fill="#5db2ff"/>
      </g>
    </g>
  </g>
</svg>
