<svg xmlns="http://www.w3.org/2000/svg" width="68.452" height="60.02" viewBox="0 0 68.452 60.02">
  <g id="https:_www.flaticon.com_free-icon_group_223432" data-name="https://www.flaticon.com/free-icon/group_223432" transform="translate(0)">
    <g id="Group_85" data-name="Group 85" transform="translate(0 0)">
      <path id="Path_95" data-name="Path 95" d="M68.314,81.47,65.6,72.037a1.407,1.407,0,0,0-.323-.517,15.831,15.831,0,0,0-11.048-10.4l-.775-.129a3.238,3.238,0,0,0-3.295,1.034c-2.843,3.23-6.461,3.489-10.273,3.489s-7.43-.258-10.273-3.489a3.238,3.238,0,0,0-3.295-1.034l-.775.194A16.03,16.03,0,0,0,16.111,68.1H7.971c-.065,0-.065,0-.129-.065,0-.065-.065-.129-.065-.258l1.68-6.008c1.486-4.716,4.329-6.138,9.885-7.559a1.249,1.249,0,0,0,.581-.323,7.336,7.336,0,0,0,1.486.969.96.96,0,0,0,.581.129,1.361,1.361,0,0,0,1.163-.711,1.3,1.3,0,0,0-.581-1.744c-2.972-1.551-5.1-5.944-5.1-10.466a7.335,7.335,0,0,1,7.3-7.3,8.205,8.205,0,0,1,2.2.323,14.772,14.772,0,0,0-1.1,5.621c0,11.048,6.655,20.351,14.537,20.351,7.753,0,14.6-9.5,14.6-20.351a14.576,14.576,0,0,0-26.812-7.947,10.306,10.306,0,0,0-3.424-.581,9.882,9.882,0,0,0-8.334,4.652,1.352,1.352,0,0,0-.388-.258,6.186,6.186,0,0,0-3.037-.711,6.412,6.412,0,0,0-6.525,6.461,11.123,11.123,0,0,0,1.486,5.556C5,48.649,2.35,49.812,1.122,53.753L.089,57.5a2.137,2.137,0,0,0,.323,1.874,2.176,2.176,0,0,0,1.809.9H7.2c-.065.258-.194.517-.258.775l-1.68,6.073a2.632,2.632,0,0,0,.517,2.455,2.637,2.637,0,0,0,2.2,1.1h6.848a11.134,11.134,0,0,0-.452,1.357l-2.714,9.5A3.706,3.706,0,0,0,12.3,84.7a3.611,3.611,0,0,0,2.843,1.421H64.825A3.519,3.519,0,0,0,67.668,84.7,3.6,3.6,0,0,0,68.314,81.47ZM29.744,35.275a.892.892,0,0,0,.194-.258c.065-.065.065-.194.129-.258A11.8,11.8,0,0,1,40.4,28.685a12.045,12.045,0,0,1,11.436,8.4,6.082,6.082,0,0,1-6.073-2.39,1.264,1.264,0,0,0-1.809-.258,1.092,1.092,0,0,0-.452.646c-.065.065-.065.129-.129.194-1.809,3.683-7.882,5.233-14.8,3.876A13.444,13.444,0,0,1,29.744,35.275Zm3.618,6.913c5.169,0,9.433-1.615,11.629-4.652a8.635,8.635,0,0,0,5.75,2.2,6.9,6.9,0,0,0,1.615-.194,6.268,6.268,0,0,1,.065,1.1c0,9.5-5.621,17.832-12.017,17.832-6.138,0-11.5-7.688-11.952-16.733A26.2,26.2,0,0,0,33.362,42.188ZM2.738,57.694l.9-3.23c.775-2.649,2.39-3.424,5.621-4.2a1.3,1.3,0,0,0,.517-.258,5.063,5.063,0,0,0,.969.646.96.96,0,0,0,.581.129,1.361,1.361,0,0,0,1.163-.711,1.33,1.33,0,0,0-.517-1.744c-1.68-.9-2.907-3.424-2.907-6.008a3.916,3.916,0,0,1,3.941-3.941,3.659,3.659,0,0,1,1.874.452,1.521,1.521,0,0,0,.517.129,9.754,9.754,0,0,0-.517,3.1,16.511,16.511,0,0,0,3.166,9.82c-3.876.969-7.3,2.261-9.562,5.815ZM65.665,83.149a1.137,1.137,0,0,1-.84.388H15.142a1.137,1.137,0,0,1-.84-.388,1.174,1.174,0,0,1-.194-.9l2.714-9.433A13.2,13.2,0,0,1,26.19,63.7l.775-.194a.825.825,0,0,1,.711.258c3.553,4.07,7.947,4.393,12.211,4.393s8.657-.323,12.211-4.393a.831.831,0,0,1,.775-.258l.775.194a13.313,13.313,0,0,1,9.368,9.11l1.163,4.006a1.041,1.041,0,0,0,.258.452l1.421,4.91A1.273,1.273,0,0,1,65.665,83.149Z" transform="translate(0 -26.101)" fill="#5db2ff"/>
    </g>
  </g>
</svg>
