<svg xmlns="http://www.w3.org/2000/svg" width="64.554" height="60.02" viewBox="0 0 64.554 60.02">
  <g id="https:_www.flaticon.com_free-icon_like_149217" data-name="https://www.flaticon.com/free-icon/like_149217" transform="translate(0)">
    <path id="Path_96" data-name="Path 96" d="M64.447,19.723c-.942-10.371-8.283-17.9-17.47-17.9A17.366,17.366,0,0,0,32.1,10.4,16.736,16.736,0,0,0,17.577,1.826c-9.186,0-16.528,7.525-17.469,17.9a18.454,18.454,0,0,0,.549,6.8A29.171,29.171,0,0,0,9.594,41.437l22.49,20.409L54.96,41.439A29.174,29.174,0,0,0,63.9,26.523,18.5,18.5,0,0,0,64.447,19.723ZM61.48,25.955A26.679,26.679,0,0,1,53.3,39.592L32.1,58.507,11.263,39.6A26.7,26.7,0,0,1,3.074,25.953a16.124,16.124,0,0,1-.516-5.836l.019-.125c.807-9.087,7.115-15.683,15-15.683,5.819,0,10.941,3.576,13.372,9.33l1.143,2.71,1.143-2.71A15,15,0,0,1,46.978,4.31c7.885,0,14.194,6.6,15.017,15.8A16.106,16.106,0,0,1,61.48,25.955Z" transform="translate(0 -1.826)" fill="#5db2ff"/>
  </g>
</svg>
