<svg xmlns="http://www.w3.org/2000/svg" width="72.226" height="60.02" viewBox="0 0 72.226 60.02">
  <g id="https:_www.flaticon.com_free-icon_respect_1189183" data-name="https://www.flaticon.com/free-icon/respect_1189183" transform="translate(0)">
    <g id="Group_87" data-name="Group 87" transform="translate(63.577 5.912)">
      <g id="Group_86" data-name="Group 86" transform="translate(0 0)">
        <path id="Path_97" data-name="Path 97" d="M453.1,85.582a1.414,1.414,0,1,0,.412,1A1.418,1.418,0,0,0,453.1,85.582Z" transform="translate(-450.688 -85.169)" fill="#5db2ff"/>
      </g>
    </g>
    <g id="Group_89" data-name="Group 89" transform="translate(31.175 39.137)">
      <g id="Group_88" data-name="Group 88">
        <path id="Path_98" data-name="Path 98" d="M223.407,321.108a1.414,1.414,0,1,0,.412,1A1.418,1.418,0,0,0,223.407,321.108Z" transform="translate(-220.999 -320.695)" fill="#5db2ff"/>
      </g>
    </g>
    <g id="Group_91" data-name="Group 91" transform="translate(0 0)">
      <g id="Group_90" data-name="Group 90">
        <path id="Path_99" data-name="Path 99" d="M69.4,54.272a1.411,1.411,0,1,0-2.453,1.395,18.951,18.951,0,0,1-3.077,22.71l-1.07,1.07a5.283,5.283,0,0,0-1.2-1.86l-14.5-14.5A9.748,9.748,0,0,0,49.7,61.233l2.78-2.78a1.411,1.411,0,0,0-2-2l-2.78,2.78a6.87,6.87,0,0,1-4.889,2.025H37.254a1.412,1.412,0,0,0-1,.413L32,65.931a3.24,3.24,0,0,1-4.583-4.583l9.713-9.713a18.986,18.986,0,0,1,22.535-3.175,1.411,1.411,0,0,0,1.369-2.468,21.886,21.886,0,0,0-13.417-2.527,21.5,21.5,0,0,0-11.5,5.245A21.73,21.73,0,0,0,6.364,80.356l.532.532a1.411,1.411,0,0,0,.3.229,5.3,5.3,0,0,0,5.3,4.9c.071,0,.141,0,.212-.005,0,.071-.005.143-.005.215a5.312,5.312,0,0,0,5.316,5.314c.071,0,.141,0,.212-.005,0,.071-.005.143-.005.215a5.312,5.312,0,0,0,5.316,5.314c.072,0,.143,0,.215-.005a5.314,5.314,0,0,0,9.068,3.974L34.8,99.061l2.663,2.663A5.314,5.314,0,0,0,46.526,97.7c.089,0,.177.007.266.007A5.307,5.307,0,0,0,52.1,92.179c.071,0,.143.005.215.005a5.311,5.311,0,0,0,5.309-5.529c.071,0,.143.005.215.005a5.313,5.313,0,0,0,4.912-3.285,1.409,1.409,0,0,0,.38-.27l2.736-2.736A21.778,21.778,0,0,0,69.4,54.272ZM12.5,83.2a2.495,2.495,0,0,1-1.764-4.259l2.431-2.431a2.495,2.495,0,0,1,3.528,3.528L14.26,82.468A2.479,2.479,0,0,1,12.5,83.2Zm3.759,4.793a2.495,2.495,0,0,1,0-3.528l2.431-2.431h0a2.495,2.495,0,0,1,3.528,3.528l-2.431,2.431A2.5,2.5,0,0,1,16.256,87.991Zm5.523,5.523a2.495,2.495,0,0,1,0-3.528l2.431-2.431h0a2.495,2.495,0,1,1,3.528,3.528l-2.431,2.431A2.5,2.5,0,0,1,21.779,93.515Zm11.483,3.092L30.83,99.038A2.495,2.495,0,0,1,27.3,95.51l2.431-2.431h0a2.495,2.495,0,0,1,3.528,3.528ZM59.6,83.109a2.495,2.495,0,0,1-3.528,0L50.2,77.237h0L44.68,71.713a1.411,1.411,0,0,0-2,2l11.4,11.4a2.495,2.495,0,1,1-3.528,3.528l-11.4-11.4a1.411,1.411,0,0,0-2,2l5.522,5.522h0l5.872,5.872a2.495,2.495,0,1,1-3.528,3.528l-5.872-5.872a1.408,1.408,0,0,0-.361-.261l-1.675-1.675a1.411,1.411,0,1,0-2,2L42.984,96.2a2.495,2.495,0,1,1-3.528,3.528l-2.99-2.99A5.318,5.318,0,0,0,31.5,89.526c-.072,0-.143,0-.215.005A5.311,5.311,0,0,0,25.975,84c-.072,0-.143,0-.215.005a5.311,5.311,0,0,0-5.309-5.529c-.072,0-.143,0-.215.005a5.313,5.313,0,0,0-9.068-3.971L8.738,76.945a5.314,5.314,0,0,0-.783,1A18.909,18.909,0,0,1,34.094,50.684l-8.67,8.67A6.062,6.062,0,0,0,34,67.926l3.842-3.841h4.973a9.882,9.882,0,0,0,1.218-.078L59.6,79.581A2.5,2.5,0,0,1,59.6,83.109Z" transform="translate(0 -43.261)" fill="#5db2ff"/>
      </g>
    </g>
  </g>
</svg>
